<svg height="469pt" viewBox="0 0 469.49709 469" width="469pt" xmlns="http://www.w3.org/2000/svg"><path d="m60.40625 222.664062h117.824219v145.167969h-117.824219zm0 0" fill="#db785a"/><path d="m178.238281 371.824219h-117.832031c-2.207031 0-4-1.792969-4-4v-145.160157c0-2.207031 1.792969-4 4-4h117.832031c2.210938 0 4 1.792969 4 4v145.167969c0 2.207031-1.789062 3.992188-4 3.992188zm-113.832031-8h109.832031v-137.160157h-109.832031zm0 0" fill="#63312d"/><path d="m12.40625 222.664062h117.824219v145.167969h-117.824219zm0 0" fill="#f9a287"/><path d="m12.40625 222.664062h16v145.167969h-16zm0 0" fill="#ffc8bb"/><path d="m52.425781 351.023438h133.796875v16.808593h-133.796875zm0 0" fill="#d1d1d1"/><path d="m52.425781 222.664062h133.796875v16.808594h-133.796875zm0 0" fill="#d1d1d1"/><path d="m186.222656 371.824219h-133.796875c-2.210937 0-4-1.792969-4-4v-16.808594c0-2.207031 1.789063-4 4-4h133.796875c2.210938 0 4 1.792969 4 4v16.808594c0 2.214843-1.789062 4-4 4zm-129.796875-8h125.796875v-8.808594h-125.796875zm0 0" fill="#63312d"/><path d="m186.222656 243.464844h-133.796875c-2.210937 0-4-1.792969-4-4v-16.808594c0-2.207031 1.789063-4 4-4h133.796875c2.210938 0 4 1.792969 4 4v16.808594c0 2.214844-1.789062 4-4 4zm-129.796875-8h125.796875v-8.808594h-125.796875zm0 0" fill="#63312d"/><path d="m130.238281 371.824219h-117.832031c-2.207031 0-4-1.792969-4-4v-145.160157c0-2.207031 1.792969-4 4-4h117.832031c2.210938 0 4 1.792969 4 4v145.167969c0 2.207031-1.789062 3.992188-4 3.992188zm-113.832031-8h109.832031v-137.160157h-109.832031zm0 0" fill="#63312d"/><path d="m126.238281 295.242188h8v127.992187h-8zm0 0" fill="#63312d"/><path d="m129.847656 434c-4.40625 0-8-3.597656-8-8v-5.527344c0-4.398437 3.59375-8 8-8h.800782c4.390624 0 8 3.601563 8 8v5.527344c0 4.402344-3.609376 8-8 8zm0 0" fill="#f8f3f3"/><path d="m129.847656 319.234375c-4.40625 0-8-3.601563-8-8v-17.386719c0-4.398437 3.59375-8 8-8h.800782c4.390624 0 8 3.601563 8 8v17.386719c0 4.398437-3.609376 8-8 8zm0 0" fill="#f8f3f3"/><path d="m130.640625 438h-.800781c-6.617188 0-12-5.382812-12-12v-5.527344c0-6.617187 5.382812-12 12-12 7.417968 0 12.800781 5.382813 12.800781 12v5.527344c0 6.617188-5.375 12-12 12zm0-21.535156c-3 0-4.800781 1.792968-4.800781 4v5.527344c0 2.207031 1.800781 4 4 4h.800781c2.167969 0 4-1.832032 4-4v-5.527344c0-2.167969-1.824219-4-4-4zm0 0" fill="#63312d"/><path d="m130.640625 323.234375h-.800781c-6.617188 0-12-5.386719-12-12v-17.386719c0-6.613281 5.382812-12 12-12 7.417968 0 12.800781 5.386719 12.800781 12v17.386719c0 6.613281-5.375 12-12 12zm0-33.386719c-3 0-4.800781 1.792969-4.800781 4v17.386719c0 2.207031 1.800781 4 4 4h.800781c2.167969 0 4-1.832031 4-4v-17.386719c0-2.167968-1.824219-4-4-4zm0 0" fill="#63312d"/><path d="m8.40625 295.242188h8v127.992187h-8zm0 0" fill="#63312d"/><path d="m12 319.234375c-4.390625 0-8-3.601563-8-8v-17.386719c0-4.398437 3.609375-8 8-8h.800781c4.40625 0 8 3.601563 8 8v17.386719c0 4.398437-3.59375 8-8 8zm0 0" fill="#f8f3f3"/><path d="m12.800781 323.234375h-.800781c-6.617188 0-12-5.386719-12-12v-17.386719c0-6.613281 5.382812-12 12-12 7.414062 0 12.800781 5.386719 12.800781 12v17.386719c0 6.613281-5.386719 12-12 12zm0-33.386719c-2.96875 0-4.800781 1.832032-4.800781 4v17.386719c0 2.167969 1.832031 4 4 4h.800781c2.199219 0 4-1.792969 4-4v-17.386719c0-2.207031-1.800781-4-4-4zm0 0" fill="#63312d"/><path d="m67.3125 295.242188h8v127.992187h-8zm0 0" fill="#63312d"/><path d="m70.921875 319.234375c-4.410156 0-8-3.601563-8-8v-17.386719c0-4.398437 3.589844-8 8-8h.796875c4.394531 0 8 3.601563 8 8v17.386719c0 4.398437-3.605469 8-8 8zm0 0" fill="#f8f3f3"/><path d="m71.71875 323.234375h-.796875c-6.617187 0-12-5.386719-12-12v-17.386719c0-6.613281 5.382813-12 12-12 7.414063 0 12.796875 5.386719 12.796875 12v17.386719c0 6.613281-5.382812 12-12 12zm0-33.386719c-3 0-4.796875 1.792969-4.796875 4v17.386719c0 2.207031 1.796875 4 4 4h.796875c2.167969 0 4-1.832031 4-4v-17.386719c0-2.167968-1.824219-4-4-4zm0 0" fill="#63312d"/><path d="m4.425781 351.023438h133.796875v16.808593h-133.796875zm0 0" fill="#f8f3f3"/><path d="m138.222656 371.824219h-133.796875c-2.210937 0-4-1.792969-4-4v-16.808594c0-2.207031 1.789063-4 4-4h133.796875c2.210938 0 4 1.792969 4 4v16.808594c0 2.214843-1.789062 4-4 4zm-129.796875-8h125.796875v-8.808594h-125.796875zm0 0" fill="#63312d"/><path d="m4.425781 222.664062h133.796875v16.808594h-133.796875zm0 0" fill="#f8f3f3"/><path d="m138.222656 243.464844h-133.796875c-2.210937 0-4-1.792969-4-4v-16.808594c0-2.207031 1.789063-4 4-4h133.796875c2.210938 0 4 1.792969 4 4v16.808594c0 2.214844-1.789062 4-4 4zm-129.796875-8h125.796875v-8.808594h-125.796875zm0 0" fill="#63312d"/><path d="m146.046875 107.578125h86.136719v86.550781h-86.136719zm0 0" fill="#db785a"/><path d="m232.183594 198.128906h-86.136719c-2.207031 0-4-1.792968-4-4v-86.550781c0-2.210937 1.792969-4 4-4h86.136719c2.207031 0 4 1.789063 4 4v86.550781c0 2.207032-1.792969 4-4 4zm-82.136719-8h78.136719v-78.550781h-78.136719zm0 0" fill="#63312d"/><path d="m139.03125 177.320312h100.152344v16.808594h-100.152344zm0 0" fill="#d1d1d1"/><path d="m239.191406 198.128906h-100.160156c-2.207031 0-4-1.792968-4-4v-16.808594c0-2.207031 1.792969-4 4-4h100.160156c2.207032 0 4 1.792969 4 4v16.808594c0 2.207032-1.792968 4-4 4zm-96.160156-8h92.160156v-8.808594h-92.160156zm0 0" fill="#63312d"/><path d="m139.03125 107.578125h100.152344v16.796875h-100.152344zm0 0" fill="#d1d1d1"/><path d="m239.191406 128.367188h-100.160156c-2.207031 0-4-1.789063-4-4v-16.796876c0-2.210937 1.792969-4 4-4h100.160156c2.207032 0 4 1.789063 4 4v16.796876c0 2.21875-1.792968 4-4 4zm-96.160156-8h92.160156v-8.796876h-92.160156zm0 0" fill="#63312d"/><path d="m204.113281 143.976562h8v72.734376h-8zm0 0" fill="#63312d"/><path d="m207.703125 167.96875c-4.398437 0-8-3.601562-8-8v-17.382812c0-4.402344 3.601563-8 8-8h.808594c4.398437 0 8 3.597656 8 8v17.382812c0 4.398438-3.601563 8-8 8zm0 0" fill="#f8f3f3"/><path d="m208.511719 171.96875h-.808594c-6.613281 0-12-5.382812-12-12v-17.382812c0-6.617188 5.386719-12 12-12h.808594c6.617187 0 12 5.382812 12 12v17.382812c0 6.625-5.382813 12-12 12zm-.808594-33.375c-2.199219 0-4 1.789062-4 4v17.382812c0 2.207032 1.800781 4 4 4h.808594c2.199219 0 4-1.792968 4-4v-17.382812c0-2.210938-1.800781-4-4-4zm0 0" fill="#63312d"/><path d="m98.046875 107.578125h86.136719v86.550781h-86.136719zm0 0" fill="#f9a287"/><path d="m98.046875 107.578125h16v86.550781h-16zm0 0" fill="#ffc8bb"/><path d="m184.183594 198.128906h-86.136719c-2.207031 0-4-1.792968-4-4v-86.550781c0-2.210937 1.792969-4 4-4h86.136719c2.207031 0 4 1.789063 4 4v86.550781c0 2.207032-1.792969 4-4 4zm-82.136719-8h78.136719v-78.550781h-78.136719zm0 0" fill="#63312d"/><path d="m91.03125 177.320312h100.152344v16.808594h-100.152344zm0 0" fill="#f8f3f3"/><path d="m191.191406 198.128906h-100.160156c-2.207031 0-4-1.792968-4-4v-16.808594c0-2.207031 1.792969-4 4-4h100.160156c2.207032 0 4 1.792969 4 4v16.808594c0 2.207032-1.792968 4-4 4zm-96.160156-8h92.160156v-8.808594h-92.160156zm0 0" fill="#63312d"/><path d="m91.03125 107.578125h100.152344v16.796875h-100.152344zm0 0" fill="#f8f3f3"/><path d="m191.191406 128.367188h-100.160156c-2.207031 0-4-1.789063-4-4v-16.796876c0-2.210937 1.792969-4 4-4h100.160156c2.207032 0 4 1.789063 4 4v16.796876c0 2.21875-1.792968 4-4 4zm-96.160156-8h92.160156v-8.796876h-92.160156zm0 0" fill="#63312d"/><path d="m232.367188 213.96875h-48v172h48c47.503906 0 86-38.503906 86-86.007812 0-47.488282-38.496094-85.992188-86-85.992188zm0 0" fill="#db785a"/><path d="m232.367188 389.96875h-48c-2.207032 0-4-1.792969-4-4v-172c0-2.207031 1.792968-4 4-4h48c49.625 0 90 40.367188 90 89.992188 0 49.632812-40.375 90.007812-90 90.007812zm-44-8h44c45.21875 0 82-36.792969 82-82.007812 0-45.207032-36.78125-81.992188-82-81.992188h-44zm0 0" fill="#63312d"/><path d="m98.367188 299.960938c0 47.503906 38.503906 86.007812 86 86.007812 47.503906 0 86-38.503906 86-86.007812 0-47.496094-38.503907-85.992188-86-85.992188-47.488282 0-86 38.503906-86 85.992188zm0 0" fill="#f9a287"/><path d="m114.367188 299.960938c0-44.792969 34.257812-81.550782 78-85.59375-2.632813-.238282-5.296876-.398438-8-.398438-47.496094 0-86 38.496094-86 85.992188 0 47.503906 38.503906 86.007812 86 86.007812 2.703124 0 5.367187-.160156 8-.398438-43.742188-4.042968-78-40.800781-78-85.609374zm0 0" fill="#ffc8bb"/><path d="m184.367188 389.96875c-49.625 0-90-40.375-90-90.007812 0-49.625 40.375-89.992188 90-89.992188s90 40.367188 90 89.992188c0 49.632812-40.375 90.007812-90 90.007812zm0-172c-45.214844 0-82 36.785156-82 81.992188 0 45.214843 36.785156 82.007812 82 82.007812 45.21875 0 82-36.792969 82-82.007812 0-45.207032-36.773438-81.992188-82-81.992188zm0 0" fill="#63312d"/><path d="m131.902344 299.960938c0 28.976562 23.496094 52.488281 52.472656 52.488281s52.472656-23.503907 52.472656-52.488281c0-28.96875-23.488281-52.472657-52.472656-52.472657s-52.472656 23.503907-52.472656 52.472657zm0 0" fill="#f9dd9d"/><path d="m147.902344 299.960938c0-26.242188 19.304687-47.9375 44.472656-51.800782-2.613281-.398437-5.269531-.671875-8-.671875-28.976562 0-52.472656 23.503907-52.472656 52.472657 0 28.976562 23.496094 52.488281 52.472656 52.488281 2.730469 0 5.386719-.273438 8-.671875-25.167969-3.863282-44.472656-25.5625-44.472656-51.816406zm0 0" fill="#ffeecf"/><path d="m184.367188 356.449219c-31.144532 0-56.472657-25.335938-56.472657-56.488281 0-31.136719 25.328125-56.472657 56.472657-56.472657 31.144531 0 56.472656 25.335938 56.472656 56.472657 0 31.144531-25.328125 56.488281-56.472656 56.488281zm0-104.953125c-26.726563 0-48.472657 21.746094-48.472657 48.472656 0 26.734375 21.746094 48.488281 48.472657 48.488281 26.730468 0 48.472656-21.753906 48.472656-48.488281 0-26.726562-21.742188-48.472656-48.472656-48.472656zm0 0" fill="#63312d"/><path d="m291.175781 300.183594h8v123.050781h-8zm0 0" fill="#63312d"/><path d="m294.769531 434c-4.402343 0-8-3.597656-8-8v-5.527344c0-4.398437 3.597657-8 8-8h.804688c4.402343 0 8 3.601563 8 8v5.527344c0 4.402344-3.597657 8-8 8zm0 0" fill="#f8f3f3"/><path d="m294.769531 319.234375c-4.402343 0-8-3.601563-8-8v-17.386719c0-4.398437 3.597657-8 8-8h.804688c4.402343 0 8 3.601563 8 8v17.386719c0 4.398437-3.597657 8-8 8zm0 0" fill="#f8f3f3"/><path d="m295.574219 438h-.804688c-6.617187 0-12-5.382812-12-12v-5.527344c0-6.617187 5.382813-12 12-12h.804688c6.617187 0 12 5.382813 12 12v5.527344c0 6.617188-5.382813 12-12 12zm-.804688-21.535156c-2.203125 0-4 1.792968-4 4v5.527344c0 2.207031 1.796875 4 4 4h.804688c2.203125 0 4-1.792969 4-4v-5.527344c0-2.207032-1.796875-4-4-4zm0 0" fill="#63312d"/><path d="m295.574219 323.234375h-.804688c-6.617187 0-12-5.386719-12-12v-17.386719c0-6.613281 5.382813-12 12-12h.804688c6.617187 0 12 5.386719 12 12v17.386719c0 6.613281-5.382813 12-12 12zm-.804688-33.386719c-2.203125 0-4 1.792969-4 4v17.386719c0 2.207031 1.796875 4 4 4h.804688c2.203125 0 4-1.792969 4-4v-17.386719c0-2.207031-1.796875-4-4-4zm0 0" fill="#63312d"/><path d="m15.96875 426-6.625-4.496094 29.34375-43.261718c.753906-1.097657 1.984375-1.753907 3.3125-1.753907s2.566406.664063 3.3125 1.761719l29.261719 43.261719-6.621094 4.488281-25.960937-38.375zm0 0" fill="#63312d"/><path d="m12 434c-4.390625 0-8-3.597656-8-8v-5.527344c0-4.398437 3.609375-8 8-8h.800781c4.40625 0 8 3.601563 8 8v5.527344c0 4.402344-3.59375 8-8 8zm0 0" fill="#f8f3f3"/><path d="m12.800781 438h-.800781c-6.617188 0-12-5.382812-12-12v-5.527344c0-6.617187 5.382812-12 12-12 7.414062 0 12.800781 5.382813 12.800781 12v5.527344c0 6.617188-5.386719 12-12 12zm0-21.535156c-2.96875 0-4.800781 1.832031-4.800781 4v5.527344c0 2.167968 1.832031 4 4 4h.800781c2.199219 0 4-1.792969 4-4v-5.527344c0-2.199219-1.800781-4-4-4zm0 0" fill="#63312d"/><path d="m70.921875 434c-4.410156 0-8-3.597656-8-8v-5.527344c0-4.398437 3.589844-8 8-8h.796875c4.394531 0 8 3.601563 8 8v5.527344c0 4.402344-3.605469 8-8 8zm0 0" fill="#f8f3f3"/><path d="m71.71875 438h-.796875c-6.617187 0-12-5.382812-12-12v-5.527344c0-6.617187 5.382813-12 12-12 7.414063 0 12.796875 5.382813 12.796875 12v5.527344c0 6.617188-5.382812 12-12 12zm0-21.535156c-3 0-4.796875 1.792968-4.796875 4v5.527344c0 2.207031 1.796875 4 4 4h.796875c2.167969 0 4-1.832032 4-4v-5.527344c0-2.167969-1.824219-4-4-4zm0 0" fill="#63312d"/><path d="m38.089844 164.046875h8v217.371094h-8zm0 0" fill="#63312d"/><path d="m38.246094 162.695312 49.046875-137.019531 7.53125 2.695313-49.046875 137.019531zm0 0" fill="#63312d"/><path d="m138.894531 65.625-42.964843-16.449219c-1.082032-4.832031-4.472657-9.039062-9.425782-10.953125-4.96875-1.902344-10.296875-1.023437-14.328125 1.851563l-42.96875-16.457031-6.015625 15.695312 109.6875 42.007812zm0 0" fill="#f9dd9d"/><path d="m132.878906 85.3125c-.480468 0-.957031-.089844-1.429687-.265625l-109.6875-42c-.992188-.382813-1.792969-1.132813-2.226563-2.109375-.429687-.96875-.464844-2.066406-.078125-3.058594l6.015625-15.6875c.792969-2.054687 3.113282-3.078125 5.167969-2.304687l41.113281 15.746093c4.941406-2.746093 10.855469-3.183593 16.183594-1.136718 5.335938 2.054687 9.429688 6.328125 11.277344 11.664062l41.113281 15.738282c.992187.375 1.792969 1.132812 2.222656 2.101562.433594.96875.464844 2.074219.082031 3.066406l-6.015624 15.6875c-.617188 1.582032-2.128907 2.558594-3.738282 2.558594zm-104.527344-48.304688 102.214844 39.144532 3.160156-8.222656-39.230468-15.015626c-1.25-.480468-2.175782-1.554687-2.480469-2.867187-.832031-3.703125-3.421875-6.726563-6.953125-8.085937-3.503906-1.335938-7.46875-.832032-10.558594 1.367187-1.113281.785156-2.511718.96875-3.761718.480469l-39.230469-15.023438zm0 0" fill="#63312d"/><path d="m41.734375 392.183594c-4.390625 0-8-3.597656-8-8v-5.535156c0-4.398438 3.609375-8 8-8h.800781c4.410156 0 8 3.601562 8 8v5.535156c0 4.402344-3.589844 8-8 8zm0 0" fill="#f8f3f3"/><path d="m41.734375 176.105469c-4.390625 0-8-3.601563-8-8v-7.984375c0-4.402344 3.609375-8 8-8h.800781c4.410156 0 8 3.597656 8 8v7.992187c0 4.398438-3.589844 8-8 8h-.800781zm0 0" fill="#f8f3f3"/><path d="m42.535156 396.183594h-.800781c-6.613281 0-12-5.382813-12-12v-5.535156c0-6.617188 5.386719-12 12-12 7.417969 0 12.800781 5.382812 12.800781 12v5.535156c0 6.617187-5.382812 12-12 12zm0-21.535156c-2.96875 0-4.800781 1.832031-4.800781 4v5.535156c0 2.167968 1.832031 4 4 4h.800781c2.199219 0 4-1.792969 4-4v-5.535156c0-2.207032-1.800781-4-4-4zm0 0" fill="#63312d"/><path d="m42.535156 180.105469h-.800781c-6.613281 0-12-5.386719-12-12v-7.992188c0-6.617187 5.386719-12 12-12 7.417969 0 12.800781 5.382813 12.800781 12v7.992188c0 6.625-5.382812 12-12 12zm0-23.992188c-2.96875 0-4.800781 1.832031-4.800781 4v7.992188c0 2.167969 1.832031 4 4 4h.800781c2.199219 0 4-1.792969 4-4v-7.992188c0-2.199219-1.800781-4-4-4zm0 0" fill="#63312d"/><path d="m296.710938 162.679688c0-3.128907-2.550782-5.671876-5.671876-5.671876h-1.792968c-3.125 0-5.671875 2.550782-5.671875 5.671876v11.542968c0 3.121094 2.546875 5.675782 5.671875 5.675782h1.792968c3.121094 0 5.671876-2.554688 5.671876-5.675782zm0 0" fill="#f9dd9d"/><path d="m291.039062 183.90625h-1.792968c-5.335938 0-9.671875-4.335938-9.671875-9.671875v-11.554687c0-5.335938 4.335937-9.671876 9.671875-9.671876h1.792968c5.335938 0 9.671876 4.335938 9.671876 9.671876v11.542968c0 5.335938-4.335938 9.683594-9.671876 9.683594zm-1.78125-22.90625c-.921874 0-1.671874.753906-1.671874 1.671875v11.542969c0 .914062.765624 1.671875 1.671874 1.671875h1.789063c.90625 0 1.671875-.765625 1.671875-1.671875v-11.535156c0-.910157-.765625-1.671876-1.671875-1.671876h-1.789063zm0 0" fill="#63312d"/><path d="m325.472656 103.792969v111.519531c0 3.121094 2.558594 5.671875 5.6875 5.671875h33.726563c3.128906 0 5.519531-2.550781 5.351562-5.664063l-1.574219-111.527343zm0 0" fill="#efc36a"/><path d="m364.886719 224.984375h-33.726563c-5.34375 0-9.6875-4.335937-9.6875-9.671875v-111.519531c0-2.207031 1.792969-4 4-4h43.183594c2.183594 0 3.96875 1.757812 4 3.945312l1.574219 111.527344c.144531 2.453125-.757813 4.925781-2.535157 6.808594-1.765624 1.878906-4.191406 2.910156-6.808593 2.910156zm-35.414063-117.191406v107.519531c0 .910156.773438 1.671875 1.6875 1.671875h33.726563c.503906 0 .832031-.222656 1-.40625.175781-.195313.386719-.523437.359375-1.042969l-1.527344-107.75h-35.246094zm0 0" fill="#63312d"/><path d="m342.265625 448.105469c0-3.128907-2.554687-5.671875-5.671875-5.671875h-1.800781c-3.121094 0-5.671875 2.550781-5.671875 5.671875v11.542969c0 3.121093 2.550781 5.671874 5.671875 5.671874h1.800781c3.117188 0 5.671875-2.550781 5.671875-5.671874zm0 0" fill="#f9dd9d"/><path d="m336.601562 469.320312h-1.800781c-5.335937 0-9.671875-4.335937-9.671875-9.671874v-11.542969c0-5.335938 4.335938-9.671875 9.671875-9.671875h1.800781c5.335938 0 9.671876 4.335937 9.671876 9.671875v11.542969c0 5.335937-4.335938 9.671874-9.671876 9.671874zm-1.800781-22.894531c-.90625 0-1.671875.765625-1.671875 1.671875v11.542969c0 .910156.765625 1.671875 1.671875 1.671875h1.800781c.902344 0 1.671876-.769531 1.671876-1.671875v-11.542969c0-.914062-.769532-1.671875-1.671876-1.671875zm0 0" fill="#63312d"/><path d="m443.878906 312.769531c-9.453125-15.28125-5.015625-32.792969 1.9375-47.800781s14.167969-39.753906-1.390625-51.425781c-2.722656-2.039063-5.167969-2.832031-7.394531-2.8125v-.058594h-39.847656v37.113281c-7-.257812-10.503906-7.769531-20.023438-32.839844-1.367187-3.609374-6.929687-4.800781-6.976562-4.800781h-44.695313c-2.945312-3.800781-5.335937-9.152343-6.695312-16.617187-3.5625-19.445313-5.503907-22.894532-9.113281-22.796875v-.019531h-40.015626v55.394531h20.3125c.167969.832031.289063 1.589843.488282 2.445312 10.839844 48.363281 15.289062 65.3125 3.886718 86.722657-11.390624 21.40625-32.800781 59.207031-14.734374 95.613281 10.640624 21.433593 33.070312 31.554687 53.230468 36.289062v4.015625h40.320313v-.007812c17.679687-.03125 59.40625-1.390625 82.632812-34.734375 23.648438-33.90625-2.472656-88.402344-11.921875-103.679688zm0 0" fill="#52b8d9"/><path d="m332.863281 455.191406c-1.0625 0-2.078125-.421875-2.832031-1.167968-.75-.742188-1.167969-1.765626-1.167969-2.832032v-.878906c-25.648437-6.664062-43.871093-19.640625-52.824219-37.640625-18.40625-37.101563 1.679688-74.726563 13.6875-97.199219l1.105469-2.070312c10.273438-19.289063 6.910157-34.242188-3.0625-78.625l-1.050781-4.664063h-17.046875c-2.207031 0-4-1.792969-4-4v-55.394531c0-2.207031 1.792969-4 4-4h40.015625c7.542969.066406 9.625 7.425781 13.046875 26.097656.984375 5.433594 2.609375 9.902344 4.824219 13.335938h42.632812c.9375 0 8.511719 1.558594 10.71875 7.375 5.867188 15.457031 9.328125 23.753906 12.28125 27.570312v-30.417968c0-2.207032 1.792969-4 4-4h39.839844c.265625 0 .527344.023437.792969.082031 3.015625.167969 6.039062 1.367187 9.007812 3.597656 19.222657 14.417969 8.230469 44.175781 2.617188 56.304687-8.472657 18.289063-9.175781 32.679688-2.167969 44.015626.414062.664062 40.648438 66.722656 11.824219 108.074218-25.304688 36.328125-70.914063 36.414063-85.90625 36.445313zm4-8h36.320313c13.953125-.03125 56.441406-.136718 79.351562-33.023437 21.457032-30.785157-1.429687-82.113281-12.054687-99.289063-8.535157-13.796875-7.976563-30.671875 1.703125-51.582031 4.808594-10.359375 14.390625-35.632813-.160156-46.542969-1.824219-1.371094-3.785157-1.875-4.960938-2.015625-.160156.007813-.488281-.019531-.710938-.058593h-35.167968v33.113281c0 1.085937-.449219 2.128906-1.222656 2.878906-.777344.753906-1.703126 1.234375-2.921876 1.121094-9.808593-.351563-13.726562-9.375-23.613281-35.417969-.355469-.941406-2.617187-1.992188-4.027343-2.292969l-43.902344.078125c-1.230469 0-2.40625-.566406-3.167969-1.542968-3.574219-4.617188-6.089844-10.792969-7.472656-18.351563-2.175781-11.921875-3.960938-18.535156-5.269531-19.640625l-35.914063.09375v47.402344h16.3125c1.894531 0 3.527344 1.335937 3.910156 3.191406l1.671875 7.71875c10.175782 45.289062 13.984375 62.234375 2.320313 84.136719l-1.109375 2.082031c-11.273438 21.117188-30.152344 56.460938-13.570313 89.878906 8.3125 16.742188 25.328125 28.238282 50.5625 34.167969 1.804688.421875 3.085938 2.039063 3.085938 3.894531zm0 0" fill="#63312d"/><path d="m337.863281 214.9375c-4.4375-11.679688-20.015625 1.382812-30.296875 3.046875-10.277344 1.671875-23.902344-1.671875-28.078125-24.464844-4.167969-22.78125-6.113281-23.621093-11.113281-22.511719-5.007812 1.113282-22.800781 9.167969-11.949219 57.527344 10.832031 48.363282 15.277344 65.3125 3.886719 86.722656-11.402344 21.40625-32.808594 59.207032-14.738281 95.613282 18.074219 36.410156 70.226562 40.304687 87.371093 40.304687 17.132813 0 59.941407-.839843 83.566407-34.742187 23.625-33.90625-2.503907-88.402344-11.953125-103.679688-9.453125-15.28125-5-32.792968 1.945312-47.800781 6.945313-15.007813 14.167969-39.753906-1.390625-51.425781-15.5625-11.671875-22.792969 15.570312-26.402343 21.953125-3.605469 6.417969-20.464844 33.097656-40.847657-20.542969zm0 0" fill="#82d9ff"/><path d="m261.585938 410.886719c-18.074219-36.40625 3.335937-74.207031 14.734374-95.613281 11.390626-21.410157 6.945313-38.359376-3.886718-86.722657-6.839844-30.496093-2.289063-44.949219 3.261718-51.757812-2.121093-6.351563-4.078124-6.496094-7.3125-5.777344-5.007812 1.113281-22.796874 9.167969-11.949218 57.527344 10.832031 48.363281 15.277344 65.3125 3.886718 86.722656-11.398437 21.40625-32.808593 59.207031-14.734374 95.613281 18.070312 36.410156 70.222656 40.304688 87.367187 40.304688 2.566406 0 5.78125-.03125 9.367187-.183594-21.289062-1.023438-64.585937-7.566406-80.734374-40.113281zm0 0" fill="#caf4ff"/><path d="m332.945312 455.191406c-11.664062 0-70.867187-2.046875-90.953124-42.519531-18.425782-37.121094 1.6875-74.742187 13.695312-97.222656l1.097656-2.046875c10.261719-19.289063 6.902344-34.234375-3.058594-78.601563l-1.207031-5.367187c-5.398437-24.082032-4.632812-41.808594 2.273438-52.6875 4.535156-7.144532 10.40625-9.113282 12.71875-9.625 1.558593-.34375 4.472656-1 7.214843.832031 3.664063 2.421875 5.609376 8 8.699219 24.871094 3.671875 20.097656 14.75 22.65625 23.503907 21.230469 2.726562-.4375 6.300781-2.007813 9.765624-3.527344 6.578126-2.878906 13.375-5.871094 18.984376-3.535156 2.71875 1.144531 4.710937 3.335937 5.929687 6.542968 9.742187 25.648438 17.605469 29.96875 21.429687 30.257813 5.464844.503906 10.394532-7.023438 12.199219-10.242188.578125-1.015625 1.234375-2.605469 2.035157-4.496093 3.285156-7.765626 8.261718-19.511719 17.222656-21.933594 4.246094-1.136719 8.625-.054688 13.023437 3.238281 19.214844 14.410156 8.234375 44.167969 2.625 56.304687-8.585937 18.550782-9.273437 32.535157-2.175781 44.015626.414062.664062 40.648438 66.722656 11.832031 108.074218-25.410156 36.4375-71.65625 36.4375-86.855469 36.4375zm-62.59375-280.542968c0 .0625-.351562.105468-1.113281.273437-1.046875.230469-4.6875 1.351563-7.695312 6.101563-3.933594 6.199218-7.351563 19.328124-1.214844 46.648437l1.199219 5.359375c10.167968 45.273438 13.96875 62.210938 2.3125 84.113281l-1.105469 2.054688c-11.277344 21.121093-30.167969 56.472656-13.574219 89.90625 17.984375 36.238281 72.945313 38.078125 83.785156 38.078125 14.167969 0 57.269532 0 80.285157-33.023438 21.449219-30.777344-1.445313-82.113281-12.070313-99.289062-8.527344-13.78125-7.96875-30.664063 1.710938-51.582032 4.800781-10.359374 14.386718-35.640624-.160156-46.542968-3.511719-2.640625-5.496094-2.089844-6.144532-1.914063-5.199218 1.402344-9.421875 11.367188-11.941406 17.328125-.945312 2.222656-1.753906 4.105469-2.433594 5.3125-5.527344 9.769532-12.757812 14.769532-19.777344 14.28125-10.292968-.785156-19.550781-12.351562-28.308593-35.386718-.609375-1.613282-1.289063-1.902344-1.539063-2.007813-2.46875-1.015625-8.109375 1.480469-12.671875 3.480469-3.917969 1.71875-7.972656 3.503906-11.703125 4.105468-6.304687 1.03125-27.207031 2.023438-32.65625-27.6875-2.128906-11.738281-3.878906-18.328124-5.183594-19.609374zm0 0" fill="#63312d"/><path d="m323.40625 231.066406c-11.125-3.625-26.6875-3.035156-24.46875 8.070313 2.230469 11.105469 7.078125 25-.210938 53.351562-7.285156 28.34375-13.398437 40.304688-10.894531 51.144531 2.503907 10.832032 9.167969 14.03125 22.503907 14.03125h49.191406c4.457031 0 5.984375 7.214844 22.800781 7.921876 16.160156.664062 16.265625 9.445312 21.527344 15.152343 5.265625 5.664063 21.183593 4.367188 21.367187-10.664062-3.253906-24.617188-14.957031-48.089844-20.664062-57.3125-9.453125-15.28125-5-32.792969 1.945312-47.800781 6.945313-15.007813 14.167969-39.753907-1.390625-51.425782-15.5625-11.671875-22.792969 15.570313-26.402343 21.953125-2.167969 3.832031-9.09375 14.9375-18.6875 11.679688-10.488282-.542969-25.503907-12.496094-36.617188-16.101563zm0 0" fill="#f8f3f3"/><path d="m412.105469 387.839844c-4.351563 0-8.53125-1.542969-11.167969-4.382813-1.59375-1.726562-2.722656-3.558593-3.808594-5.335937-2.792968-4.542969-4.992187-8.136719-14.960937-8.542969-12.191407-.503906-17.496094-4.355469-20.648438-6.65625-.671875-.488281-1.6875-1.21875-1.984375-1.265625h-49.191406c-11.664062 0-22.929688-2.070312-26.40625-17.136719-1.960938-8.519531.566406-17.046875 4.773438-31.175781 1.792968-6.03125 3.914062-13.167969 6.152343-21.863281 6.207031-24.167969 3.34375-37.128907 1.03125-47.535157-.308593-1.394531-.597656-2.730468-.863281-4.03125-.871094-4.402343.289062-8.28125 3.28125-10.945312 5.855469-5.207031 17.472656-4.617188 26.34375-1.71875 4.917969 1.597656 10.421875 4.648438 15.75 7.589844 7.167969 3.960937 14.578125 8.066406 19.851562 8.335937.367188.015625.726563.089844 1.070313.207031 6.199219 2.113282 11.34375-5.292968 13.917969-9.863281.578125-1.007812 1.234375-2.605469 2.035156-4.488281 3.285156-7.765625 8.261719-19.511719 17.222656-21.933594 4.25-1.136718 8.625-.058594 13.023438 3.238282 19.214844 14.410156 8.234375 44.167968 2.625 56.304687-8.585938 18.550781-9.273438 32.535156-2.175782 44.015625 6.351563 10.265625 17.960938 34.207031 21.230469 58.886719-.0625 8.503906-3.925781 14.523437-10.566406 17.089843-2.113281.816407-4.351563 1.207032-6.535156 1.207032zm-100.824219-154.765625c-3.425781 0-6.257812.628906-7.671875 1.886719-.394531.34375-1.210937 1.078124-.753906 3.382812l.832031 3.871094c2.359375 10.648437 5.59375 25.234375-1.09375 51.265625-2.265625 8.808593-4.417969 16.039062-6.234375 22.152343-3.824219 12.863282-6.136719 20.632813-4.640625 27.097657 1.714844 7.40625 4.929688 10.933593 18.609375 10.933593h49.191406c2.839844 0 4.800781 1.417969 6.6875 2.792969 2.746094 1.992188 6.496094 4.71875 16.273438 5.128907 14.230469.589843 18.230469 7.109374 21.457031 12.359374.917969 1.503907 1.796875 2.933594 2.847656 4.070313 1.519532 1.632813 5.480469 2.480469 8.941406 1.160156 2.464844-.953125 5.417969-3.3125 5.488282-9.152343-3.054688-22.765626-14.054688-45.4375-20.0625-55.160157-8.527344-13.78125-7.96875-30.664062 1.710937-51.582031 4.800781-10.359375 14.382813-35.640625-.160156-46.542969-3.511719-2.640625-5.496094-2.089843-6.144531-1.914062-5.199219 1.398437-9.421875 11.367187-11.941406 17.328125-.945313 2.222656-1.753907 4.105468-2.433594 5.3125-6.34375 11.191406-14.710938 16.152344-22.917969 13.671875-6.992187-.566407-15.007813-5-22.769531-9.296875-5.222656-2.886719-10.160156-5.617188-14.34375-6.984375-3.648438-1.183594-7.542969-1.78125-10.871094-1.78125zm0 0" fill="#63312d"/><path d="m353.078125 373.871094c0 3.121094-2.550781 5.671875-5.671875 5.671875h-30.796875c-3.128906 0-5.679687-2.550781-5.679687-5.671875v-18.574219c0-3.121094 2.550781-5.671875 5.679687-5.671875h30.796875c3.121094 0 5.671875 2.550781 5.671875 5.671875zm0 0" fill="#f9dd9d"/><path d="m326.929688 373.871094v-18.574219c0-3.121094 2.550781-5.671875 5.679687-5.671875h-16c-3.128906 0-5.679687 2.550781-5.679687 5.671875v18.574219c0 3.121094 2.550781 5.671875 5.679687 5.671875h16c-3.121094 0-5.679687-2.550781-5.679687-5.671875zm0 0" fill="#ffeecf"/><path d="m347.40625 383.542969h-30.796875c-5.335937 0-9.679687-4.335938-9.679687-9.671875v-18.574219c0-5.335937 4.34375-9.671875 9.679687-9.671875h30.796875c5.335938 0 9.671875 4.335938 9.671875 9.671875v18.574219c0 5.335937-4.335937 9.671875-9.671875 9.671875zm-30.796875-29.917969c-.914063 0-1.679687.765625-1.679687 1.671875v18.574219c0 .90625.765624 1.671875 1.679687 1.671875h30.796875c.90625 0 1.671875-.765625 1.671875-1.671875v-18.574219c0-.90625-.765625-1.671875-1.671875-1.671875zm0 0" fill="#63312d"/><path d="m353.078125 322.328125c0-3.121094-2.550781-5.679687-5.671875-5.679687h-30.796875c-3.128906 0-5.679687 2.558593-5.679687 5.679687v2.359375c0 3.121094 2.550781 5.671875 5.679687 5.671875h30.796875c3.121094 0 5.671875-2.550781 5.671875-5.671875zm0 0" fill="#f9dd9d"/><path d="m326.929688 324.6875v-2.359375c0-3.121094 2.550781-5.679687 5.679687-5.679687h-16c-3.128906 0-5.679687 2.558593-5.679687 5.679687v2.359375c0 3.121094 2.550781 5.671875 5.679687 5.671875h16c-3.121094 0-5.679687-2.550781-5.679687-5.671875zm0 0" fill="#ffeecf"/><path d="m353.078125 293.113281c0-3.121093-2.550781-5.671875-5.671875-5.671875h-30.796875c-3.128906 0-5.679687 2.550782-5.679687 5.671875v2.359375c0 3.121094 2.550781 5.679688 5.679687 5.679688h30.796875c3.121094 0 5.671875-2.558594 5.671875-5.679688zm0 0" fill="#f9dd9d"/><path d="m326.929688 295.472656v-2.359375c0-3.121093 2.550781-5.671875 5.679687-5.671875h-16c-3.128906 0-5.679687 2.550782-5.679687 5.671875v2.359375c0 3.121094 2.550781 5.679688 5.679687 5.679688h16c-3.121094 0-5.679687-2.558594-5.679687-5.679688zm0 0" fill="#ffeecf"/><path d="m347.40625 334.359375h-30.796875c-5.335937 0-9.679687-4.335937-9.679687-9.671875v-2.359375c0-5.335937 4.34375-9.679687 9.679687-9.679687h30.796875c5.335938 0 9.671875 4.34375 9.671875 9.679687v2.359375c0 5.335938-4.335937 9.671875-9.671875 9.671875zm-30.796875-13.710937c-.914063 0-1.679687.769531-1.679687 1.679687v2.359375c0 .90625.765624 1.671875 1.679687 1.671875h30.796875c.90625 0 1.671875-.765625 1.671875-1.671875v-2.359375c0-.910156-.765625-1.679687-1.671875-1.679687zm0 0" fill="#63312d"/><path d="m347.40625 305.152344h-30.796875c-5.335937 0-9.679687-4.34375-9.679687-9.679688v-2.359375c0-5.335937 4.34375-9.671875 9.679687-9.671875h30.796875c5.335938 0 9.671875 4.335938 9.671875 9.671875v2.359375c0 5.335938-4.335937 9.679688-9.671875 9.679688zm-30.796875-13.710938c-.914063 0-1.679687.765625-1.679687 1.671875v2.359375c0 .910156.765624 1.679688 1.679687 1.679688h30.796875c.90625 0 1.671875-.769532 1.671875-1.679688v-2.359375c0-.90625-.765625-1.671875-1.671875-1.671875zm0 0" fill="#63312d"/><path d="m314.128906 103.792969v154.671875c0 3.121094 2.550782 5.679687 5.671875 5.679687h24.40625c3.128907 0 5.679688-2.550781 5.679688-5.679687v-154.671875zm0 0" fill="#f9dd9d"/><path d="m330.128906 258.464844v-154.671875h-16v154.671875c0 3.121094 2.550782 5.679687 5.671875 5.679687h16c-3.121093 0-5.671875-2.550781-5.671875-5.679687zm0 0" fill="#ffeecf"/><path d="m344.207031 268.144531h-24.40625c-5.335937 0-9.671875-4.335937-9.671875-9.671875v-154.679687c0-2.207031 1.792969-4 4-4h35.757813c2.210937 0 4 1.792969 4 4v154.671875c0 5.335937-4.34375 9.679687-9.679688 9.679687zm-26.078125-160.351562v150.671875c0 .910156.765625 1.671875 1.671875 1.671875h24.40625c.914063 0 1.679688-.769531 1.679688-1.671875v-150.671875zm0 0" fill="#63312d"/><path d="m232.183594 4.25h232.792968v120.078125h-232.792968zm0 0" fill="#f8f3f3"/><g fill="#63312d"><path d="m464.96875 128.328125h-232.785156c-2.207032 0-4-1.792969-4-4v-120.078125c0-2.210938 1.792968-4 4-4h232.792968c2.207032 0 4 1.789062 4 4v120.078125c-.007812 2.207031-1.792968 4-4.007812 4zm-228.785156-8h224.792968v-112.078125h-224.792968zm0 0"/><path d="m285.414062 36.105469v49.246093h19.195313v7.511719h-28.503906v-56.757812zm0 0"/><path d="m312.34375 36.105469h9.304688v56.757812h-9.304688zm0 0"/><path d="m373 36.105469h9.808594l-21.320313 56.757812h-10.777343l-21.398438-56.757812h9.96875l16.816406 47.199219zm0 0"/><path d="m421.886719 43.617188h-22.054688v16.65625h19.609375v7.597656h-19.609375v17.394531h22.054688v7.589844h-31.359375v-56.839844h31.359375zm0 0"/></g></svg>