<?xml version="1.0" encoding="iso-8859-1"?>
<!-- Generator: Adobe Illustrator 19.0.0, SVG Export Plug-In . SVG Version: 6.00 Build 0)  -->
<svg version="1.1" id="Capa_1" xmlns="http://www.w3.org/2000/svg" xmlns:xlink="http://www.w3.org/1999/xlink" x="0px" y="0px"
	 viewBox="0 0 512 512" style="enable-background:new 0 0 512 512;" xml:space="preserve">
<g>
	<g>
		<rect x="361" y="482" width="30" height="30"/>
	</g>
</g>
<g>
	<g>
		<rect y="482" width="30" height="30"/>
	</g>
</g>
<g>
	<g>
		<polygon points="331,222 331,392 60,392 60,222 0,222 0,452 391,452 391,222 		"/>
	</g>
</g>
<g>
	<g>
		<path d="M271,292H120c-16.542,0-30,13.458-30,30v40h211v-40C301,305.458,287.542,292,271,292z"/>
	</g>
</g>
<g>
	<g>
		<path d="M90,132v138.072c8.833-5.123,19.075-8.072,30-8.072h151c10.925,0,21.167,2.949,30,8.072V132H90z"/>
	</g>
</g>
<g>
	<g>
		<rect x="421" y="192" width="30" height="320"/>
	</g>
</g>
<g>
	<g>
		<polygon points="499.756,0 372.244,0 360,162 512,162 		"/>
	</g>
</g>
<g>
</g>
<g>
</g>
<g>
</g>
<g>
</g>
<g>
</g>
<g>
</g>
<g>
</g>
<g>
</g>
<g>
</g>
<g>
</g>
<g>
</g>
<g>
</g>
<g>
</g>
<g>
</g>
<g>
</g>
</svg>
